# xmcd
#
# Track frame offsets:
# 150
# 19610
# 34982
# 54655
# 70925
# 88355
# 106167
# 122525
# 138105
# 158312
# 173250
# 190127
# 208970
#
# Disc length: 3028 seconds
#
#
# Revision: 1
# Processed by: cddbd v1.5PL3 Copyright (c) Steve Scherf et al.
# Submitted via: FreeRIP 2.60 
#
DISCID=a50bd20d
DTITLE=Pagode Pra Namorar - Pagode Pra Namorar
DYEAR=1900
DGENRE=Samba
TTITLE0=Como é Que Eu Vou Fazer
TTITLE1=Ilusão
TTITLE2=Pra Sempre Na Minha Vida
TTITLE3=Amor De Verão
TTITLE4=Pout Porri (Preciso Desse Mel, Mundo De Ilusão)
TTITLE5=Corpo Lúcido
TTITLE6=Nascente
TTITLE7=Búzios e Tarô
TTITLE8=Tô Carente Meu Bem
TTITLE9=Tu Mandas No Meu Coração
TTITLE10=Timidez
TTITLE11=Preciso Desse Amor
TTITLE12=Quando Voçê Me Beija
EXTD=
EXTT0=
EXTT1=
EXTT2=
EXTT3=
EXTT4=
EXTT5=
EXTT6=
EXTT7=
EXTT8=
EXTT9=
EXTT10=
EXTT11=
EXTT12=
PLAYORDER=
